<svg width="180" height="50" viewBox="0 0 180 50" fill="none" xmlns="http://www.w3.org/2000/svg">
  <!-- Anchor Icon -->
  <g id="anchor-icon">
    <path d="M25 8C25 10.7614 22.7614 13 20 13C17.2386 13 15 10.7614 15 8C15 5.23858 17.2386 3 20 3C22.7614 3 25 5.23858 25 8Z" fill="white"/>
    <path d="M20 13V35M20 35C20 35 13 35 10 40C7 45 7 47 7 47M20 35C20 35 27 35 30 40C33 45 33 47 33 47" stroke="white" stroke-width="2.5" stroke-linecap="round" stroke-linejoin="round"/>
    <path d="M14 20H26" stroke="white" stroke-width="2.5" stroke-linecap="round"/>
  </g>
  
  <!-- Company Name -->
  <text x="45" y="23" font-family="'Inter', 'Segoe UI', system-ui, sans-serif" font-size="18" font-weight="700" fill="white" letter-spacing="-0.5">ANCHOR</text>
  <text x="45" y="40" font-family="'Inter', 'Segoe UI', system-ui, sans-serif" font-size="14" font-weight="400" fill="#0d9488" letter-spacing="2">FUNDING</text>
  
  <!-- Tagline -->
  <text x="138" y="30" font-family="'Inter', 'Segoe UI', system-ui, sans-serif" font-size="9" font-weight="500" fill="#cbd5e1" letter-spacing="0.5">CAPITAL SOLUTIONS</text>
</svg>
